<svg id="visual" viewBox="0 0 900 600" width="900" height="600" xmlns="http://www.w3.org/2000/svg" xmlns:xlink="http://www.w3.org/1999/xlink" version="1.1"><rect x="0" y="0" width="900" height="600" fill="#100307"></rect><path d="M0 465L21.5 453.2C43 441.3 86 417.7 128.8 404C171.7 390.3 214.3 386.7 257.2 398.5C300 410.3 343 437.7 385.8 433.8C428.7 430 471.3 395 514.2 385.3C557 375.7 600 391.3 642.8 395.8C685.7 400.3 728.3 393.7 771.2 379C814 364.3 857 341.7 878.5 330.3L900 319L900 0L878.5 0C857 0 814 0 771.2 0C728.3 0 685.7 0 642.8 0C600 0 557 0 514.2 0C471.3 0 428.7 0 385.8 0C343 0 300 0 257.2 0C214.3 0 171.7 0 128.8 0C86 0 43 0 21.5 0L0 0Z" fill="#180208"></path><path d="M0 239L21.5 265.5C43 292 86 345 128.8 369.5C171.7 394 214.3 390 257.2 375.7C300 361.3 343 336.7 385.8 323.3C428.7 310 471.3 308 514.2 304.7C557 301.3 600 296.7 642.8 306.8C685.7 317 728.3 342 771.2 342.2C814 342.3 857 317.7 878.5 305.3L900 293L900 0L878.5 0C857 0 814 0 771.2 0C728.3 0 685.7 0 642.8 0C600 0 557 0 514.2 0C471.3 0 428.7 0 385.8 0C343 0 300 0 257.2 0C214.3 0 171.7 0 128.8 0C86 0 43 0 21.5 0L0 0Z" fill="#1d0108"></path><path d="M0 183L21.5 202C43 221 86 259 128.8 262.8C171.7 266.7 214.3 236.3 257.2 223.3C300 210.3 343 214.7 385.8 209.8C428.7 205 471.3 191 514.2 203.8C557 216.7 600 256.3 642.8 273.8C685.7 291.3 728.3 286.7 771.2 284.2C814 281.7 857 281.3 878.5 281.2L900 281L900 0L878.5 0C857 0 814 0 771.2 0C728.3 0 685.7 0 642.8 0C600 0 557 0 514.2 0C471.3 0 428.7 0 385.8 0C343 0 300 0 257.2 0C214.3 0 171.7 0 128.8 0C86 0 43 0 21.5 0L0 0Z" fill="#210107"></path><path d="M0 206L21.5 190.3C43 174.7 86 143.3 128.8 141.2C171.7 139 214.3 166 257.2 181.7C300 197.3 343 201.7 385.8 192.2C428.7 182.7 471.3 159.3 514.2 155.8C557 152.3 600 168.7 642.8 183C685.7 197.3 728.3 209.7 771.2 212.2C814 214.7 857 207.3 878.5 203.7L900 200L900 0L878.5 0C857 0 814 0 771.2 0C728.3 0 685.7 0 642.8 0C600 0 557 0 514.2 0C471.3 0 428.7 0 385.8 0C343 0 300 0 257.2 0C214.3 0 171.7 0 128.8 0C86 0 43 0 21.5 0L0 0Z" fill="#250005"></path><path d="M0 64L21.5 75.8C43 87.7 86 111.3 128.8 116.3C171.7 121.3 214.3 107.7 257.2 105.2C300 102.7 343 111.3 385.8 119.8C428.7 128.3 471.3 136.7 514.2 138C557 139.3 600 133.7 642.8 133C685.7 132.3 728.3 136.7 771.2 136.5C814 136.3 857 131.7 878.5 129.3L900 127L900 0L878.5 0C857 0 814 0 771.2 0C728.3 0 685.7 0 642.8 0C600 0 557 0 514.2 0C471.3 0 428.7 0 385.8 0C343 0 300 0 257.2 0C214.3 0 171.7 0 128.8 0C86 0 43 0 21.5 0L0 0Z" fill="#280003"></path></svg>