<svg id="visual" viewBox="0 0 900 600" width="900" height="600" xmlns="http://www.w3.org/2000/svg" xmlns:xlink="http://www.w3.org/1999/xlink" version="1.1"><rect x="0" y="0" width="900" height="600" fill="#030007"></rect><path d="M0 495L21.5 475.2C43 455.3 86 415.7 128.8 397.8C171.7 380 214.3 384 257.2 380.2C300 376.3 343 364.7 385.8 353.3C428.7 342 471.3 331 514.2 341.2C557 351.3 600 382.7 642.8 391.2C685.7 399.7 728.3 385.3 771.2 379.5C814 373.7 857 376.3 878.5 377.7L900 379L900 0L878.5 0C857 0 814 0 771.2 0C728.3 0 685.7 0 642.8 0C600 0 557 0 514.2 0C471.3 0 428.7 0 385.8 0C343 0 300 0 257.2 0C214.3 0 171.7 0 128.8 0C86 0 43 0 21.5 0L0 0Z" fill="#180218"></path><path d="M0 332L21.5 328.5C43 325 86 318 128.8 327.3C171.7 336.7 214.3 362.3 257.2 355C300 347.7 343 307.3 385.8 283.3C428.7 259.3 471.3 251.7 514.2 268.2C557 284.7 600 325.3 642.8 347.2C685.7 369 728.3 372 771.2 358.2C814 344.3 857 313.7 878.5 298.3L900 283L900 0L878.5 0C857 0 814 0 771.2 0C728.3 0 685.7 0 642.8 0C600 0 557 0 514.2 0C471.3 0 428.7 0 385.8 0C343 0 300 0 257.2 0C214.3 0 171.7 0 128.8 0C86 0 43 0 21.5 0L0 0Z" fill="#1d0116"></path><path d="M0 200L21.5 195.7C43 191.3 86 182.7 128.8 195.7C171.7 208.7 214.3 243.3 257.2 245.5C300 247.7 343 217.3 385.8 222.3C428.7 227.3 471.3 267.7 514.2 265.8C557 264 600 220 642.8 214.7C685.7 209.3 728.3 242.7 771.2 247.3C814 252 857 228 878.5 216L900 204L900 0L878.5 0C857 0 814 0 771.2 0C728.3 0 685.7 0 642.8 0C600 0 557 0 514.2 0C471.3 0 428.7 0 385.8 0C343 0 300 0 257.2 0C214.3 0 171.7 0 128.8 0C86 0 43 0 21.5 0L0 0Z" fill="#220012"></path><path d="M0 205L21.5 202.7C43 200.3 86 195.7 128.8 181.7C171.7 167.7 214.3 144.3 257.2 150.8C300 157.3 343 193.7 385.8 204C428.7 214.3 471.3 198.7 514.2 179.2C557 159.7 600 136.3 642.8 140C685.7 143.7 728.3 174.3 771.2 187.2C814 200 857 195 878.5 192.5L900 190L900 0L878.5 0C857 0 814 0 771.2 0C728.3 0 685.7 0 642.8 0C600 0 557 0 514.2 0C471.3 0 428.7 0 385.8 0C343 0 300 0 257.2 0C214.3 0 171.7 0 128.8 0C86 0 43 0 21.5 0L0 0Z" fill="#25000c"></path><path d="M0 82L21.5 79.5C43 77 86 72 128.8 72.5C171.7 73 214.3 79 257.2 87.7C300 96.3 343 107.7 385.8 111.5C428.7 115.3 471.3 111.7 514.2 113C557 114.3 600 120.7 642.8 118.8C685.7 117 728.3 107 771.2 109.7C814 112.3 857 127.7 878.5 135.3L900 143L900 0L878.5 0C857 0 814 0 771.2 0C728.3 0 685.7 0 642.8 0C600 0 557 0 514.2 0C471.3 0 428.7 0 385.8 0C343 0 300 0 257.2 0C214.3 0 171.7 0 128.8 0C86 0 43 0 21.5 0L0 0Z" fill="#280003"></path></svg>