<svg id="visual" viewBox="0 0 900 600" width="900" height="600" xmlns="http://www.w3.org/2000/svg" xmlns:xlink="http://www.w3.org/1999/xlink" version="1.1"><rect x="0" y="0" width="900" height="600" fill="#100307"></rect><path d="M0 217L21.5 222.2C43 227.3 86 237.7 128.8 233.3C171.7 229 214.3 210 257.2 202.8C300 195.7 343 200.3 385.8 197C428.7 193.7 471.3 182.3 514.2 186.3C557 190.3 600 209.7 642.8 212.5C685.7 215.3 728.3 201.7 771.2 202.5C814 203.3 857 218.7 878.5 226.3L900 234L900 0L878.5 0C857 0 814 0 771.2 0C728.3 0 685.7 0 642.8 0C600 0 557 0 514.2 0C471.3 0 428.7 0 385.8 0C343 0 300 0 257.2 0C214.3 0 171.7 0 128.8 0C86 0 43 0 21.5 0L0 0Z" fill="#100307"></path><path d="M0 166L21.5 169.8C43 173.7 86 181.3 128.8 186.2C171.7 191 214.3 193 257.2 195.2C300 197.3 343 199.7 385.8 194.8C428.7 190 471.3 178 514.2 170.8C557 163.7 600 161.3 642.8 154.3C685.7 147.3 728.3 135.7 771.2 135.5C814 135.3 857 146.7 878.5 152.3L900 158L900 0L878.5 0C857 0 814 0 771.2 0C728.3 0 685.7 0 642.8 0C600 0 557 0 514.2 0C471.3 0 428.7 0 385.8 0C343 0 300 0 257.2 0C214.3 0 171.7 0 128.8 0C86 0 43 0 21.5 0L0 0Z" fill="#180208"></path><path d="M0 141L21.5 141.5C43 142 86 143 128.8 142.8C171.7 142.7 214.3 141.3 257.2 135.7C300 130 343 120 385.8 112.7C428.7 105.3 471.3 100.7 514.2 97.8C557 95 600 94 642.8 93.5C685.7 93 728.3 93 771.2 99.3C814 105.7 857 118.3 878.5 124.7L900 131L900 0L878.5 0C857 0 814 0 771.2 0C728.3 0 685.7 0 642.8 0C600 0 557 0 514.2 0C471.3 0 428.7 0 385.8 0C343 0 300 0 257.2 0C214.3 0 171.7 0 128.8 0C86 0 43 0 21.5 0L0 0Z" fill="#1e0108"></path><path d="M0 79L21.5 81.8C43 84.7 86 90.3 128.8 86.7C171.7 83 214.3 70 257.2 70.7C300 71.3 343 85.7 385.8 95.7C428.7 105.7 471.3 111.3 514.2 106.8C557 102.3 600 87.7 642.8 86.2C685.7 84.7 728.3 96.3 771.2 102.7C814 109 857 110 878.5 110.5L900 111L900 0L878.5 0C857 0 814 0 771.2 0C728.3 0 685.7 0 642.8 0C600 0 557 0 514.2 0C471.3 0 428.7 0 385.8 0C343 0 300 0 257.2 0C214.3 0 171.7 0 128.8 0C86 0 43 0 21.5 0L0 0Z" fill="#230006"></path><path d="M0 40L21.5 45.2C43 50.3 86 60.7 128.8 58.3C171.7 56 214.3 41 257.2 41.3C300 41.7 343 57.3 385.8 62.7C428.7 68 471.3 63 514.2 60.7C557 58.3 600 58.7 642.8 56.2C685.7 53.7 728.3 48.3 771.2 48.3C814 48.3 857 53.7 878.5 56.3L900 59L900 0L878.5 0C857 0 814 0 771.2 0C728.3 0 685.7 0 642.8 0C600 0 557 0 514.2 0C471.3 0 428.7 0 385.8 0C343 0 300 0 257.2 0C214.3 0 171.7 0 128.8 0C86 0 43 0 21.5 0L0 0Z" fill="#280003"></path></svg>