<svg id="visual" viewBox="0 0 900 600" width="900" height="600" xmlns="http://www.w3.org/2000/svg" xmlns:xlink="http://www.w3.org/1999/xlink" version="1.1"><rect x="0" y="0" width="900" height="600" fill="#030007"></rect><path d="M0 478L30 486.8C60 495.7 120 513.3 180 523.5C240 533.7 300 536.3 360 542.2C420 548 480 557 540 554.2C600 551.3 660 536.7 720 527.8C780 519 840 516 870 514.5L900 513L900 0L870 0C840 0 780 0 720 0C660 0 600 0 540 0C480 0 420 0 360 0C300 0 240 0 180 0C120 0 60 0 30 0L0 0Z" fill="#a51185"></path><path d="M0 499L30 504.3C60 509.7 120 520.3 180 521.7C240 523 300 515 360 508.5C420 502 480 497 540 495.5C600 494 660 496 720 501.5C780 507 840 516 870 520.5L900 525L900 0L870 0C840 0 780 0 720 0C660 0 600 0 540 0C480 0 420 0 360 0C300 0 240 0 180 0C120 0 60 0 30 0L0 0Z" fill="#9b0875"></path><path d="M0 409L30 413.7C60 418.3 120 427.7 180 439.8C240 452 300 467 360 457.5C420 448 480 414 540 405.8C600 397.7 660 415.3 720 431.8C780 448.3 840 463.7 870 471.3L900 479L900 0L870 0C840 0 780 0 720 0C660 0 600 0 540 0C480 0 420 0 360 0C300 0 240 0 180 0C120 0 60 0 30 0L0 0Z" fill="#910365"></path><path d="M0 374L30 376.2C60 378.3 120 382.7 180 385.7C240 388.7 300 390.3 360 401.3C420 412.3 480 432.7 540 431.5C600 430.3 660 407.7 720 401.5C780 395.3 840 405.7 870 410.8L900 416L900 0L870 0C840 0 780 0 720 0C660 0 600 0 540 0C480 0 420 0 360 0C300 0 240 0 180 0C120 0 60 0 30 0L0 0Z" fill="#860057"></path><path d="M0 351L30 359C60 367 120 383 180 378.8C240 374.7 300 350.3 360 337.8C420 325.3 480 324.7 540 336.2C600 347.7 660 371.3 720 377.3C780 383.3 840 371.7 870 365.8L900 360L900 0L870 0C840 0 780 0 720 0C660 0 600 0 540 0C480 0 420 0 360 0C300 0 240 0 180 0C120 0 60 0 30 0L0 0Z" fill="#7a004a"></path><path d="M0 328L30 322.5C60 317 120 306 180 299.7C240 293.3 300 291.7 360 294.2C420 296.7 480 303.3 540 312.3C600 321.3 660 332.7 720 325.5C780 318.3 840 292.7 870 279.8L900 267L900 0L870 0C840 0 780 0 720 0C660 0 600 0 540 0C480 0 420 0 360 0C300 0 240 0 180 0C120 0 60 0 30 0L0 0Z" fill="#6e003e"></path><path d="M0 287L30 283.2C60 279.3 120 271.7 180 271.5C240 271.3 300 278.7 360 274.5C420 270.3 480 254.7 540 248.8C600 243 660 247 720 253.8C780 260.7 840 270.3 870 275.2L900 280L900 0L870 0C840 0 780 0 720 0C660 0 600 0 540 0C480 0 420 0 360 0C300 0 240 0 180 0C120 0 60 0 30 0L0 0Z" fill="#620233"></path><path d="M0 264L30 261C60 258 120 252 180 253C240 254 300 262 360 258.7C420 255.3 480 240.7 540 239C600 237.3 660 248.7 720 247.3C780 246 840 232 870 225L900 218L900 0L870 0C840 0 780 0 720 0C660 0 600 0 540 0C480 0 420 0 360 0C300 0 240 0 180 0C120 0 60 0 30 0L0 0Z" fill="#560328"></path><path d="M0 218L30 208.7C60 199.3 120 180.7 180 167.2C240 153.7 300 145.3 360 153.5C420 161.7 480 186.3 540 191.8C600 197.3 660 183.7 720 180.7C780 177.7 840 185.3 870 189.2L900 193L900 0L870 0C840 0 780 0 720 0C660 0 600 0 540 0C480 0 420 0 360 0C300 0 240 0 180 0C120 0 60 0 30 0L0 0Z" fill="#49041f"></path><path d="M0 99L30 101.7C60 104.3 120 109.7 180 113C240 116.3 300 117.7 360 119C420 120.3 480 121.7 540 116.8C600 112 660 101 720 108.7C780 116.3 840 142.7 870 155.8L900 169L900 0L870 0C840 0 780 0 720 0C660 0 600 0 540 0C480 0 420 0 360 0C300 0 240 0 180 0C120 0 60 0 30 0L0 0Z" fill="#3d0517"></path><path d="M0 126L30 116.8C60 107.7 120 89.3 180 83.2C240 77 300 83 360 84C420 85 480 81 540 74.5C600 68 660 59 720 64C780 69 840 88 870 97.5L900 107L900 0L870 0C840 0 780 0 720 0C660 0 600 0 540 0C480 0 420 0 360 0C300 0 240 0 180 0C120 0 60 0 30 0L0 0Z" fill="#32040e"></path><path d="M0 77L30 75.8C60 74.7 120 72.3 180 66.2C240 60 300 50 360 52.3C420 54.7 480 69.3 540 70.7C600 72 660 60 720 56.5C780 53 840 58 870 60.5L900 63L900 0L870 0C840 0 780 0 720 0C660 0 600 0 540 0C480 0 420 0 360 0C300 0 240 0 180 0C120 0 60 0 30 0L0 0Z" fill="#280003"></path></svg>