<svg id="visual" viewBox="0 0 900 600" width="900" height="600" xmlns="http://www.w3.org/2000/svg" xmlns:xlink="http://www.w3.org/1999/xlink" version="1.1"><rect x="0" y="0" width="900" height="600" fill="#030007"></rect><path d="M0 455L30 453.7C60 452.3 120 449.7 180 451.3C240 453 300 459 360 456.3C420 453.7 480 442.3 540 438.2C600 434 660 437 720 444.8C780 452.7 840 465.3 870 471.7L900 478L900 0L870 0C840 0 780 0 720 0C660 0 600 0 540 0C480 0 420 0 360 0C300 0 240 0 180 0C120 0 60 0 30 0L0 0Z" fill="#030007"></path><path d="M0 319L30 320.8C60 322.7 120 326.3 180 326.5C240 326.7 300 323.3 360 341.2C420 359 480 398 540 393.8C600 389.7 660 342.3 720 334C780 325.7 840 356.3 870 371.7L900 387L900 0L870 0C840 0 780 0 720 0C660 0 600 0 540 0C480 0 420 0 360 0C300 0 240 0 180 0C120 0 60 0 30 0L0 0Z" fill="#09000c"></path><path d="M0 293L30 299.3C60 305.7 120 318.3 180 312.5C240 306.7 300 282.3 360 272.3C420 262.3 480 266.7 540 277C600 287.3 660 303.7 720 314.8C780 326 840 332 870 335L900 338L900 0L870 0C840 0 780 0 720 0C660 0 600 0 540 0C480 0 420 0 360 0C300 0 240 0 180 0C120 0 60 0 30 0L0 0Z" fill="#10000f"></path><path d="M0 309L30 302.8C60 296.7 120 284.3 180 286.7C240 289 300 306 360 306.5C420 307 480 291 540 277C600 263 660 251 720 249.3C780 247.7 840 256.3 870 260.7L900 265L900 0L870 0C840 0 780 0 720 0C660 0 600 0 540 0C480 0 420 0 360 0C300 0 240 0 180 0C120 0 60 0 30 0L0 0Z" fill="#160010"></path><path d="M0 194L30 195.8C60 197.7 120 201.3 180 204.8C240 208.3 300 211.7 360 215.3C420 219 480 223 540 219C600 215 660 203 720 207C780 211 840 231 870 241L900 251L900 0L870 0C840 0 780 0 720 0C660 0 600 0 540 0C480 0 420 0 360 0C300 0 240 0 180 0C120 0 60 0 30 0L0 0Z" fill="#1c0010"></path><path d="M0 142L30 151.2C60 160.3 120 178.7 180 189.8C240 201 300 205 360 196.8C420 188.7 480 168.3 540 158.2C600 148 660 148 720 156.3C780 164.7 840 181.3 870 189.7L900 198L900 0L870 0C840 0 780 0 720 0C660 0 600 0 540 0C480 0 420 0 360 0C300 0 240 0 180 0C120 0 60 0 30 0L0 0Z" fill="#20000e"></path><path d="M0 131L30 127.8C60 124.7 120 118.3 180 121C240 123.7 300 135.3 360 135.3C420 135.3 480 123.7 540 124.3C600 125 660 138 720 140.8C780 143.7 840 136.3 870 132.7L900 129L900 0L870 0C840 0 780 0 720 0C660 0 600 0 540 0C480 0 420 0 360 0C300 0 240 0 180 0C120 0 60 0 30 0L0 0Z" fill="#240009"></path><path d="M0 56L30 53C60 50 120 44 180 48C240 52 300 66 360 72.5C420 79 480 78 540 76.8C600 75.7 660 74.3 720 77.3C780 80.3 840 87.7 870 91.3L900 95L900 0L870 0C840 0 780 0 720 0C660 0 600 0 540 0C480 0 420 0 360 0C300 0 240 0 180 0C120 0 60 0 30 0L0 0Z" fill="#280003"></path></svg>