<svg id="visual" viewBox="0 0 900 600" width="900" height="600" xmlns="http://www.w3.org/2000/svg" xmlns:xlink="http://www.w3.org/1999/xlink" version="1.1"><rect x="0" y="0" width="900" height="600" fill="#030007"></rect><defs><linearGradient id="grad1_0" x1="33.3%" y1="0%" x2="100%" y2="100%"><stop offset="20%" stop-color="#bf119a" stop-opacity="1"></stop><stop offset="80%" stop-color="#bf119a" stop-opacity="1"></stop></linearGradient></defs><defs><linearGradient id="grad1_1" x1="33.3%" y1="0%" x2="100%" y2="100%"><stop offset="20%" stop-color="#bf119a" stop-opacity="1"></stop><stop offset="80%" stop-color="#9c1f8a" stop-opacity="1"></stop></linearGradient></defs><defs><linearGradient id="grad1_2" x1="33.3%" y1="0%" x2="100%" y2="100%"><stop offset="20%" stop-color="#7c2379" stop-opacity="1"></stop><stop offset="80%" stop-color="#9c1f8a" stop-opacity="1"></stop></linearGradient></defs><defs><linearGradient id="grad1_3" x1="33.3%" y1="0%" x2="100%" y2="100%"><stop offset="20%" stop-color="#7c2379" stop-opacity="1"></stop><stop offset="80%" stop-color="#5e2265" stop-opacity="1"></stop></linearGradient></defs><defs><linearGradient id="grad1_4" x1="33.3%" y1="0%" x2="100%" y2="100%"><stop offset="20%" stop-color="#441f4f" stop-opacity="1"></stop><stop offset="80%" stop-color="#5e2265" stop-opacity="1"></stop></linearGradient></defs><defs><linearGradient id="grad1_5" x1="33.3%" y1="0%" x2="100%" y2="100%"><stop offset="20%" stop-color="#441f4f" stop-opacity="1"></stop><stop offset="80%" stop-color="#2d1939" stop-opacity="1"></stop></linearGradient></defs><defs><linearGradient id="grad1_6" x1="33.3%" y1="0%" x2="100%" y2="100%"><stop offset="20%" stop-color="#1a1122" stop-opacity="1"></stop><stop offset="80%" stop-color="#2d1939" stop-opacity="1"></stop></linearGradient></defs><defs><linearGradient id="grad1_7" x1="33.3%" y1="0%" x2="100%" y2="100%"><stop offset="20%" stop-color="#1a1122" stop-opacity="1"></stop><stop offset="80%" stop-color="#030007" stop-opacity="1"></stop></linearGradient></defs><defs><linearGradient id="grad2_0" x1="0%" y1="0%" x2="66.7%" y2="100%"><stop offset="20%" stop-color="#bf119a" stop-opacity="1"></stop><stop offset="80%" stop-color="#bf119a" stop-opacity="1"></stop></linearGradient></defs><defs><linearGradient id="grad2_1" x1="0%" y1="0%" x2="66.7%" y2="100%"><stop offset="20%" stop-color="#9c1f8a" stop-opacity="1"></stop><stop offset="80%" stop-color="#bf119a" stop-opacity="1"></stop></linearGradient></defs><defs><linearGradient id="grad2_2" x1="0%" y1="0%" x2="66.7%" y2="100%"><stop offset="20%" stop-color="#9c1f8a" stop-opacity="1"></stop><stop offset="80%" stop-color="#7c2379" stop-opacity="1"></stop></linearGradient></defs><defs><linearGradient id="grad2_3" x1="0%" y1="0%" x2="66.7%" y2="100%"><stop offset="20%" stop-color="#5e2265" stop-opacity="1"></stop><stop offset="80%" stop-color="#7c2379" stop-opacity="1"></stop></linearGradient></defs><defs><linearGradient id="grad2_4" x1="0%" y1="0%" x2="66.7%" y2="100%"><stop offset="20%" stop-color="#5e2265" stop-opacity="1"></stop><stop offset="80%" stop-color="#441f4f" stop-opacity="1"></stop></linearGradient></defs><defs><linearGradient id="grad2_5" x1="0%" y1="0%" x2="66.7%" y2="100%"><stop offset="20%" stop-color="#2d1939" stop-opacity="1"></stop><stop offset="80%" stop-color="#441f4f" stop-opacity="1"></stop></linearGradient></defs><defs><linearGradient id="grad2_6" x1="0%" y1="0%" x2="66.7%" y2="100%"><stop offset="20%" stop-color="#2d1939" stop-opacity="1"></stop><stop offset="80%" stop-color="#1a1122" stop-opacity="1"></stop></linearGradient></defs><defs><linearGradient id="grad2_7" x1="0%" y1="0%" x2="66.7%" y2="100%"><stop offset="20%" stop-color="#030007" stop-opacity="1"></stop><stop offset="80%" stop-color="#1a1122" stop-opacity="1"></stop></linearGradient></defs><g transform="translate(900, 0)"><path d="M0 486.7C-40 421.2 -80 355.7 -140.8 340C-201.6 324.2 -283.2 358.3 -340.1 340.1C-397.1 322 -429.4 251.7 -449.7 186.3C-470 120.9 -478.4 60.4 -486.7 0L0 0Z" fill="#110917"></path><path d="M0 425.9C-35 368.6 -70 311.3 -123.2 297.5C-176.4 283.7 -247.8 313.5 -297.6 297.6C-347.4 281.7 -375.7 220.2 -393.5 163C-411.3 105.8 -418.6 52.9 -425.9 0L0 0Z" fill="#23152e"></path><path d="M0 365.1C-30 315.9 -60 266.8 -105.6 255C-151.2 243.2 -212.4 268.7 -255.1 255.1C-297.8 241.5 -322 188.7 -337.3 139.7C-352.5 90.7 -358.8 45.3 -365.1 0L0 0Z" fill="#381c44"></path><path d="M0 304.2C-25 263.3 -50 222.3 -88 212.5C-126 202.7 -177 223.9 -212.6 212.6C-248.2 201.2 -268.4 157.3 -281.1 116.4C-293.8 75.6 -299 37.8 -304.2 0L0 0Z" fill="#51215a"></path><path d="M0 243.4C-20 210.6 -40 177.9 -70.4 170C-100.8 162.1 -141.6 179.1 -170.1 170.1C-198.5 161 -214.7 125.8 -224.8 93.1C-235 60.4 -239.2 30.2 -243.4 0L0 0Z" fill="#6d236f"></path><path d="M0 182.5C-15 158 -30 133.4 -52.8 127.5C-75.6 121.6 -106.2 134.3 -127.5 127.5C-148.9 120.7 -161 94.4 -168.6 69.9C-176.3 45.3 -179.4 22.7 -182.5 0L0 0Z" fill="#8c2282"></path><path d="M0 121.7C-10 105.3 -20 88.9 -35.2 85C-50.4 81.1 -70.8 89.6 -85 85C-99.3 80.5 -107.3 62.9 -112.4 46.6C-117.5 30.2 -119.6 15.1 -121.7 0L0 0Z" fill="#ad1a93"></path><path d="M0 60.8C-5 52.7 -10 44.5 -17.6 42.5C-25.2 40.5 -35.4 44.8 -42.5 42.5C-49.6 40.2 -53.7 31.5 -56.2 23.3C-58.8 15.1 -59.8 7.6 -60.8 0L0 0Z" fill="#bf119a"></path></g><g transform="translate(0, 600)"><path d="M0 -486.7C67.7 -485.9 135.4 -485 186.3 -449.7C237.2 -414.4 271.2 -344.6 286.4 -286.4C301.5 -228.2 297.7 -181.6 328 -135.9C358.2 -90.1 422.5 -45 486.7 0L0 0Z" fill="#110917"></path><path d="M0 -425.9C59.2 -425.2 118.5 -424.4 163 -393.5C207.5 -362.6 237.3 -301.5 250.6 -250.6C263.8 -199.7 260.5 -158.9 287 -118.9C313.4 -78.8 369.7 -39.4 425.9 0L0 0Z" fill="#23152e"></path><path d="M0 -365.1C50.8 -364.4 101.5 -363.8 139.7 -337.3C177.9 -310.8 203.4 -258.4 214.8 -214.8C226.1 -171.1 223.3 -136.2 246 -101.9C268.7 -67.5 316.9 -33.8 365.1 0L0 0Z" fill="#381c44"></path><path d="M0 -304.2C42.3 -303.7 84.6 -303.1 116.4 -281.1C148.2 -259 169.5 -215.3 179 -179C188.5 -142.6 186.1 -113.5 205 -84.9C223.9 -56.3 264.1 -28.1 304.2 0L0 0Z" fill="#51215a"></path><path d="M0 -243.4C33.8 -242.9 67.7 -242.5 93.1 -224.8C118.6 -207.2 135.6 -172.3 143.2 -143.2C150.8 -114.1 148.9 -90.8 164 -67.9C179.1 -45 211.2 -22.5 243.4 0L0 0Z" fill="#6d236f"></path><path d="M0 -182.5C25.4 -182.2 50.8 -181.9 69.9 -168.6C88.9 -155.4 101.7 -129.2 107.4 -107.4C113.1 -85.6 111.7 -68.1 123 -50.9C134.3 -33.8 158.4 -16.9 182.5 0L0 0Z" fill="#8c2282"></path><path d="M0 -121.7C16.9 -121.5 33.8 -121.3 46.6 -112.4C59.3 -103.6 67.8 -86.1 71.6 -71.6C75.4 -57 74.4 -45.4 82 -34C89.6 -22.5 105.6 -11.3 121.7 0L0 0Z" fill="#ad1a93"></path><path d="M0 -60.8C8.5 -60.7 16.9 -60.6 23.3 -56.2C29.6 -51.8 33.9 -43.1 35.8 -35.8C37.7 -28.5 37.2 -22.7 41 -17C44.8 -11.3 52.8 -5.6 60.8 0L0 0Z" fill="#bf119a"></path></g></svg>