<svg id="visual" viewBox="0 0 900 600" width="900" height="600" xmlns="http://www.w3.org/2000/svg" xmlns:xlink="http://www.w3.org/1999/xlink" version="1.1"><rect x="0" y="0" width="900" height="600" fill="#001220"></rect><path d="M0 331L30 320.3C60 309.7 120 288.3 180 287.7C240 287 300 307 360 319.2C420 331.3 480 335.7 540 340C600 344.3 660 348.7 720 351C780 353.3 840 353.7 870 353.8L900 354L900 0L870 0C840 0 780 0 720 0C660 0 600 0 540 0C480 0 420 0 360 0C300 0 240 0 180 0C120 0 60 0 30 0L0 0Z" fill="#bf119a"></path><path d="M0 246L30 248.5C60 251 120 256 180 257.5C240 259 300 257 360 259.2C420 261.3 480 267.7 540 263.3C600 259 660 244 720 246.2C780 248.3 840 267.7 870 277.3L900 287L900 0L870 0C840 0 780 0 720 0C660 0 600 0 540 0C480 0 420 0 360 0C300 0 240 0 180 0C120 0 60 0 30 0L0 0Z" fill="#ac017c"></path><path d="M0 258L30 256.8C60 255.7 120 253.3 180 249.7C240 246 300 241 360 229.8C420 218.7 480 201.3 540 201.8C600 202.3 660 220.7 720 220.2C780 219.7 840 200.3 870 190.7L900 181L900 0L870 0C840 0 780 0 720 0C660 0 600 0 540 0C480 0 420 0 360 0C300 0 240 0 180 0C120 0 60 0 30 0L0 0Z" fill="#970061"></path><path d="M0 166L30 175.5C60 185 120 204 180 209.8C240 215.7 300 208.3 360 205.3C420 202.3 480 203.7 540 195.3C600 187 660 169 720 170.7C780 172.3 840 193.7 870 204.3L900 215L900 0L870 0C840 0 780 0 720 0C660 0 600 0 540 0C480 0 420 0 360 0C300 0 240 0 180 0C120 0 60 0 30 0L0 0Z" fill="#81004a"></path><path d="M0 143L30 138C60 133 120 123 180 129.7C240 136.3 300 159.7 360 160.2C420 160.7 480 138.3 540 132.8C600 127.3 660 138.7 720 139.5C780 140.3 840 130.7 870 125.8L900 121L900 0L870 0C840 0 780 0 720 0C660 0 600 0 540 0C480 0 420 0 360 0C300 0 240 0 180 0C120 0 60 0 30 0L0 0Z" fill="#690135"></path><path d="M0 131L30 130.8C60 130.7 120 130.3 180 123C240 115.7 300 101.3 360 98.7C420 96 480 105 540 108.3C600 111.7 660 109.3 720 104.3C780 99.3 840 91.7 870 87.8L900 84L900 0L870 0C840 0 780 0 720 0C660 0 600 0 540 0C480 0 420 0 360 0C300 0 240 0 180 0C120 0 60 0 30 0L0 0Z" fill="#520424"></path><path d="M0 81L30 80.5C60 80 120 79 180 81.3C240 83.7 300 89.3 360 93.8C420 98.3 480 101.7 540 98.2C600 94.7 660 84.3 720 81.8C780 79.3 840 84.7 870 87.3L900 90L900 0L870 0C840 0 780 0 720 0C660 0 600 0 540 0C480 0 420 0 360 0C300 0 240 0 180 0C120 0 60 0 30 0L0 0Z" fill="#3b0515"></path><path d="M0 64L30 59.3C60 54.7 120 45.3 180 45C240 44.7 300 53.3 360 52.3C420 51.3 480 40.7 540 35.8C600 31 660 32 720 32.2C780 32.3 840 31.7 870 31.3L900 31L900 0L870 0C840 0 780 0 720 0C660 0 600 0 540 0C480 0 420 0 360 0C300 0 240 0 180 0C120 0 60 0 30 0L0 0Z" fill="#280003"></path></svg>